<!DOCTYPE svg PUBLIC "-//W3C//DTD SVG 1.1//EN" "http://www.w3.org/Graphics/SVG/1.1/DTD/svg11.dtd">

<!-- Uploaded to: SVG Repo, www.svgrepo.com, Transformed by: SVG Repo Mixer Tools -->
<svg width="800px" height="800px" viewBox="0 0 256 256" xmlns="http://www.w3.org/2000/svg" xmlns:xlink="http://www.w3.org/1999/xlink" preserveAspectRatio="xMidYMid" fill="#000000" stroke="#000000" stroke-width="0.00256" transform="rotate(0)">

<g id="SVGRepo_bgCarrier" stroke-width="0"/>

<g id="SVGRepo_tracerCarrier" stroke-linecap="round" stroke-linejoin="round" stroke="#CCCCCC" stroke-width="7.168000000000001"/>

<g id="SVGRepo_iconCarrier"> <defs> <style> .cls-3 { fill: #a3cedd; } .cls-4 { fill: #a3cde6; } .cls-5 { fill: #add8e6; } .cls-6 { fill: #add8e6; } .cls-7 { fill: #add8e6; } .cls-8 { fill: #add8e6; } .cls-9 { fill: #add8e6; } </style> </defs> <g id="ball"> <path d="M128.000,1.000 C198.692,1.000 256.000,57.308 256.000,128.000 C256.000,198.692 198.692,256.000 128.000,256.000 C57.308,256.000 -0.000,198.692 -0.000,128.000 C-0.000,57.308 57.308,1.000 128.000,1.000 Z" id="path-1" class="cls-3" fill-rule="evenodd"/> <ellipse id="ellipse-1" class="cls-4" cx="128" cy="132" rx="128" ry="108"/> <ellipse id="ellipse-2" class="cls-5" cx="128" cy="114" rx="126" ry="97"/> <path d="M247.000,92.000 C247.000,136.183 193.722,172.000 128.000,172.000 C62.278,172.000 9.000,136.183 9.000,92.000 C9.000,86.079 9.985,80.131 11.801,74.266 C21.950,52.355 38.111,33.801 58.170,20.717 C77.786,9.240 101.904,2.000 128.000,2.000 C154.096,2.000 178.213,9.240 197.829,20.717 C217.889,33.801 234.050,52.355 244.199,74.266 C246.014,80.131 247.000,86.079 247.000,92.000 Z" id="path-2" class="cls-6" fill-rule="evenodd"/> <path d="M128.000,129.000 C72.771,129.000 28.000,100.346 28.000,65.000 C28.000,55.597 31.194,46.464 36.885,38.111 C60.095,14.586 92.342,-0.000 128.000,-0.000 C163.658,-0.000 195.905,14.586 219.115,38.111 C224.806,46.464 228.000,55.597 228.000,65.000 C228.000,100.346 183.228,129.000 128.000,129.000 Z" id="path-3" class="cls-7" fill-rule="evenodd"/> <ellipse id="ellipse-3" class="cls-8" cx="128" cy="48" rx="74" ry="47"/> <ellipse id="ellipse-4" class="cls-9" cx="128" cy="29" rx="46" ry="29"/> </g> </g>

</svg>